<svg width="58" height="20" viewBox="0 0 58 20" fill="none" xmlns="http://www.w3.org/2000/svg">
<path d="M9.99999 20C11.3713 20 12.6601 19.7398 13.8662 19.2193C15.0723 18.6989 16.1359 17.9761 17.057 17.0508C17.9781 16.1256 18.7009 15.0599 19.2255 13.8538C19.7501 12.6477 20.0124 11.3631 20.0124 10C20.0124 8.63693 19.7501 7.35232 19.2255 6.14622C18.7009 4.94012 17.976 3.87444 17.0508 2.94919C16.1255 2.02395 15.0599 1.30112 13.8538 0.780669C12.6477 0.260223 11.3589 0 9.9876 0C8.62456 0 7.33996 0.260223 6.13385 0.780669C4.92775 1.30112 3.8662 2.02395 2.94919 2.94919C2.03222 3.87444 1.31143 4.94012 0.786864 6.14622C0.262298 7.35232 0 8.63693 0 10C0 11.3631 0.262298 12.6477 0.786864 13.8538C1.31143 15.0599 2.03429 16.1256 2.95539 17.0508C3.87651 17.9761 4.94011 18.6989 6.14621 19.2193C7.35232 19.7398 8.63692 20 9.99999 20ZM8.90956 14.7831C8.71954 14.7831 8.54398 14.7398 8.38292 14.653C8.2218 14.5663 8.06691 14.4279 7.91821 14.2379L5.61341 11.3507C5.4399 11.1276 5.35316 10.8881 5.35316 10.632C5.35316 10.3841 5.43785 10.1694 5.60721 9.98761C5.77654 9.80586 5.98924 9.71499 6.24535 9.71499C6.40232 9.71499 6.54687 9.74805 6.67905 9.81413C6.81124 9.88021 6.9434 10.0041 7.07558 10.1859L8.85997 12.5774L12.8129 6.171C13.0194 5.83231 13.2838 5.66295 13.6059 5.66295C13.8455 5.66295 14.0623 5.7373 14.2565 5.886C14.4506 6.0347 14.5477 6.24123 14.5477 6.50558C14.5477 6.62949 14.5167 6.75548 14.4548 6.88352C14.3928 7.01156 14.3288 7.13343 14.2627 7.24907L9.83893 14.2379C9.61585 14.6014 9.30606 14.7831 8.90956 14.7831Z" fill="black"/>
<path d="M29.8522 15.5V5.404H26.5082V4.3H34.5402V5.404H31.1962V15.5H29.8522ZM36.3075 15.5V7.084H37.6515V15.5H36.3075ZM36.9795 5.484C36.7128 5.484 36.4888 5.39867 36.3075 5.228C36.1368 5.04667 36.0515 4.82267 36.0515 4.556C36.0515 4.28933 36.1368 4.076 36.3075 3.916C36.4888 3.74533 36.7128 3.66 36.9795 3.66C37.2355 3.66 37.4541 3.74533 37.6355 3.916C37.8168 4.076 37.9075 4.28933 37.9075 4.556C37.9075 4.82267 37.8168 5.04667 37.6355 5.228C37.4541 5.39867 37.2355 5.484 36.9795 5.484ZM43.6708 15.692C42.9028 15.692 42.2202 15.5107 41.6228 15.148C41.0255 14.7747 40.5562 14.2573 40.2148 13.596C39.8735 12.9347 39.7028 12.1667 39.7028 11.292C39.7028 10.4067 39.8735 9.63867 40.2148 8.988C40.5562 8.32667 41.0255 7.81467 41.6228 7.452C42.2202 7.07867 42.9028 6.892 43.6708 6.892C44.6308 6.892 45.4308 7.148 46.0708 7.66C46.7215 8.172 47.1375 8.86 47.3188 9.724H45.9428C45.8255 9.19067 45.5535 8.78 45.1268 8.492C44.7108 8.19333 44.2202 8.044 43.6548 8.044C43.1642 8.044 42.7215 8.16667 42.3268 8.412C41.9428 8.65733 41.6388 9.02 41.4148 9.5C41.1908 9.98 41.0788 10.5773 41.0788 11.292C41.0788 11.8253 41.1428 12.3 41.2708 12.716C41.3988 13.1213 41.5748 13.4627 41.7988 13.74C42.0335 14.0067 42.3055 14.2093 42.6148 14.348C42.9348 14.4867 43.2815 14.556 43.6548 14.556C44.0388 14.556 44.3855 14.492 44.6948 14.364C45.0148 14.2253 45.2815 14.028 45.4948 13.772C45.7188 13.516 45.8682 13.212 45.9428 12.86H47.3188C47.1482 13.7027 46.7322 14.3853 46.0708 14.908C45.4202 15.4307 44.6202 15.692 43.6708 15.692ZM54.2172 15.5L50.3932 10.956L53.9932 7.084H55.6412L51.5292 11.436L51.5452 10.476L55.9292 15.5H54.2172ZM49.2732 15.5V3.98H50.6172V15.5H49.2732Z" fill="black"/>
</svg>
